# File created by Blade
# Date/Time:  Wed Jan 21 16:02:01 2015
# Frame Rate: 120.000 fps
#------------------------------------------------------
:FULLY-SPECIFIED
:DEGREES
2224
root 20.845265 35.702535 -14.380696 -178.431617 -1.160703 -179.119245
Spine -7.742132 3.092595 -2.206987
Head 7.202040 -4.676986 0.686227
LeftShoulder -10.004022 -36.495816 17.951270
LeftArm 8.067520 9.086193 -4.971833
LeftForeArm 10.152069 -0.000000 -1.909548
LeftHand -7.651816 -0.000000 -4.541370
LeftHandThumb1 -26.253704 0.000000 33.147579
RightShoulder -9.871169 -7.573843 -10.072744
RightArm 12.431696 29.737166 13.747541
RightForeArm -36.134376 -0.000000 5.987490
RightHand -4.299086 0.000000 3.853205
RightHandThumb1 -24.326973 -0.000000 -32.862282
LeftUpLeg -1.468764 10.123887 2.541435
LeftLeg 1.147630 -0.000000 -0.000000
LeftFoot -20.269608 22.732152 -14.542193
LeftToeBase 27.501584 -0.000000 -0.000000
RightUpLeg -1.780566 -4.136662 -1.734464
RightLeg 2.022864 -0.000000 -0.000000
RightFoot -20.998093 -21.888368 17.992171
RightToeBase 19.888150 -0.000000 -0.000000
2225
root 20.884633 35.702003 -14.402676 -178.216041 -1.244814 -179.043816
Spine -8.074156 2.995618 -2.075759
Head 7.401354 -4.634717 0.604363
LeftShoulder -10.060228 -36.364607 17.871256
LeftArm 8.079123 9.175454 -4.980691
LeftForeArm 10.068661 0.000000 -1.887387
LeftHand -7.611788 -0.000000 -4.500018
LeftHandThumb1 -26.253704 0.000000 33.147579
RightShoulder -9.873434 -7.627357 -10.080010
RightArm 12.464860 29.717691 13.649116
RightForeArm -36.305929 -0.000000 6.109544
RightHand -4.613674 -0.000000 4.174034
RightHandThumb1 -24.326973 -0.000000 -32.862282
LeftUpLeg -1.638294 10.187671 2.644967
LeftLeg 1.069109 -0.000000 -0.000000
LeftFoot -20.155157 22.690862 -14.465936
LeftToeBase 27.474084 -0.000000 -0.000000
RightUpLeg -1.776241 -4.144502 -1.589450
RightLeg 1.688255 -0.000000 -0.000000
RightFoot -20.952737 -21.945236 18.054171
RightToeBase 20.023302 -0.000000 -0.000000
2226
root 20.921335 35.701320 -14.424355 -178.000853 -1.287906 -178.975492
Spine -8.407244 2.991943 -1.955897
Head 7.601982 -4.665679 0.515672
LeftShoulder -10.039946 -36.283608 17.755266
LeftArm 8.074749 9.252876 -4.999649
LeftForeArm 10.142548 -0.000000 -1.875642
LeftHand -7.662098 -0.000000 -4.497729
LeftHandThumb1 -26.253704 0.000000 33.147579
RightShoulder -9.895450 -7.646772 -10.116875
RightArm 12.446652 29.673141 13.570224
RightForeArm -36.208034 -0.000000 6.082892
RightHand -4.525806 -0.000000 4.041752
RightHandThumb1 -24.326973 -0.000000 -32.862282
LeftUpLeg -1.784129 10.268310 2.731725
LeftLeg 0.945556 -0.000000 -0.000000
LeftFoot -20.080606 22.667914 -14.485564
LeftToeBase 27.484927 -0.000000 -0.000000
RightUpLeg -1.786224 -4.111590 -1.465926
RightLeg 1.385227 -0.000000 -0.000000
RightFoot -20.891824 -21.939359 18.113355
RightToeBase 19.912160 -0.000000 -0.000000
2227
root 20.956075 35.701184 -14.445279 -177.783533 -1.338940 -178.912807
Spine -8.730384 2.949482 -1.833192
Head 7.787190 -4.587496 0.462058
LeftShoulder -10.070141 -36.168581 17.649937
LeftArm 8.093103 9.326849 -5.007882
LeftForeArm 10.170399 -0.000000 -1.863831
LeftHand -7.736771 -0.000000 -4.492306
LeftHandThumb1 -26.253704 0.000000 33.147579
RightShoulder -9.890350 -7.660242 -10.127473
RightArm 12.432865 29.698210 13.465228
RightForeArm -36.251534 -0.000000 6.088941
RightHand -4.586485 0.000000 4.188611
RightHandThumb1 -24.326973 -0.000000 -32.862282
LeftUpLeg -1.932247 10.348936 2.813848
LeftLeg 0.835896 -0.000000 -0.000000
LeftFoot -19.877154 22.651485 -14.239964
LeftToeBase 27.376756 -0.000000 -0.000000
RightUpLeg -1.812152 -4.120383 -1.345844
RightLeg 1.091755 -0.000000 -0.000000
RightFoot -20.852521 -21.940561 18.208813
RightToeBase 20.014067 -0.000000 -0.000000
2228
root 20.988195 35.700136 -14.470502 -177.582444 -1.382346 -178.873005
Spine -9.040015 2.986846 -1.772815
Head 7.941693 -4.626132 0.452701
LeftShoulder -10.055254 -36.114916 17.580019
LeftArm 8.127075 9.360104 -5.061456
LeftForeArm 10.290119 -0.000000 -1.856138
LeftHand -7.772764 0.000000 -4.405678
LeftHandThumb1 -26.253704 0.000000 33.147579
RightShoulder -9.998860 -7.714948 -10.098129
RightArm 12.475313 29.816499 13.428541
RightForeArm -36.296276 -0.000000 6.096289
RightHand -4.605534 -0.000000 4.291868
RightHandThumb1 -24.326973 -0.000000 -32.862282
LeftUpLeg -2.043355 10.466536 2.867657
LeftLeg 0.691437 -0.000000 -0.000000
LeftFoot -19.714960 22.602830 -14.112520
LeftToeBase 27.253966 -0.000000 -0.000000
RightUpLeg -1.816386 -4.117425 -1.256358
RightLeg 0.805400 -0.000000 -0.000000
RightFoot -20.812462 -21.919987 18.268275
RightToeBase 20.085312 -0.000000 -0.000000
